<?xml version="1.0" encoding="UTF-8"?>
<svg xmlns="http://www.w3.org/2000/svg" viewBox="0 0 100 71.36">
    <path d="M100,8.28c-.28,.78-.47,1.6-.86,2.32-1.04,1.93-2.69,3.12-4.84,3.57-.43,.09-.87,.1-1.31,.1-28.78,0-57.55,0-86.33,0-1.61,0-3.02-.65-4.22-1.73-1.1-.99-1.89-2.16-2.21-3.62C-.24,6.77,.02,4.75,1.34,2.95,2.21,1.76,3.31,.85,4.73,.38,5.13,.24,5.54,.13,5.95,0,35.3,0,64.65,0,94,0c.32,.09,.63,.19,.95,.28,1.87,.52,3.24,1.7,4.17,3.36,.39,.7,.59,1.5,.87,2.26v2.38Z"/>
    <path d="M100,36.82c-.28,.78-.47,1.6-.86,2.32-1.04,1.93-2.69,3.12-4.84,3.57-.43,.09-.87,.1-1.31,.1-28.75,0-57.5,0-86.25,0-1.69,0-3.13-.68-4.39-1.81-1.24-1.12-2.04-2.51-2.27-4.14-.26-1.89,.02-3.73,1.2-5.31,.89-1.2,1.99-2.17,3.46-2.62,.59-.18,1.21-.37,1.81-.37,28.94-.02,57.88-.02,86.82,0,1.63,0,3.05,.67,4.26,1.76,1.1,.99,1.85,2.18,2.2,3.62,.04,.17,.11,.34,.16,.51v2.38Z"/>
    <path d="M100,65.37c-.28,.78-.47,1.6-.86,2.32-1.04,1.93-2.69,3.12-4.84,3.57-.43,.09-.87,.1-1.31,.1-28.75,0-57.5,0-86.25,0-1.69,0-3.13-.68-4.39-1.81-1.24-1.12-2.04-2.51-2.27-4.14-.26-1.89,.02-3.73,1.2-5.31,.89-1.2,1.99-2.17,3.46-2.62,.59-.18,1.21-.37,1.81-.37,28.94-.02,57.88-.02,86.82,0,1.63,0,3.05,.67,4.26,1.76,1.1,.99,1.85,2.18,2.2,3.62,.04,.17,.11,.34,.16,.51v2.38Z"/>
</svg>