<?xml version="1.0" encoding="utf-8"?>
<!-- Generator: Adobe Illustrator 26.5.0, SVG Export Plug-In . SVG Version: 6.00 Build 0)  -->
<svg version="1.1" id="Layer_1" xmlns="http://www.w3.org/2000/svg" xmlns:xlink="http://www.w3.org/1999/xlink" x="0px" y="0px"
	 viewBox="0 0 100 71.4"  id="nav-btn" tabindex="0" class="ham-men">
	<path d="M100,8.3c-0.3,0.8-0.5,1.6-0.9,2.3c-1,1.9-2.7,3.1-4.8,3.6c-0.4,0.1-0.9,0.1-1.3,0.1c-28.8,0-57.5,0-86.3,0
		c-1.6,0-3-0.6-4.2-1.7c-1.1-1-1.9-2.2-2.2-3.6C-0.2,6.8,0,4.8,1.3,3c0.9-1.2,2-2.1,3.4-2.6C5.1,0.2,5.5,0.1,5.9,0
		C35.3,0,64.7,0,94,0c0.3,0.1,0.6,0.2,0.9,0.3c1.9,0.5,3.2,1.7,4.2,3.4c0.4,0.7,0.6,1.5,0.9,2.3L100,8.3L100,8.3z"/>
	<path d="M100,36.8c-0.3,0.8-0.5,1.6-0.9,2.3c-1,1.9-2.7,3.1-4.8,3.6c-0.4,0.1-0.9,0.1-1.3,0.1c-28.8,0-57.5,0-86.2,0
		c-1.7,0-3.1-0.7-4.4-1.8c-1.2-1.1-2-2.5-2.3-4.1c-0.3-1.9,0-3.7,1.2-5.3c0.9-1.2,2-2.2,3.5-2.6c0.6-0.2,1.2-0.4,1.8-0.4
		c28.9,0,57.9,0,86.8,0c1.6,0,3.1,0.7,4.3,1.8c1.1,1,1.8,2.2,2.2,3.6c0,0.2,0.1,0.3,0.2,0.5L100,36.8L100,36.8z"/>
	<path d="M100,65.4c-0.3,0.8-0.5,1.6-0.9,2.3c-1,1.9-2.7,3.1-4.8,3.6c-0.4,0.1-0.9,0.1-1.3,0.1c-28.8,0-57.5,0-86.2,0
		c-1.7,0-3.1-0.7-4.4-1.8c-1.2-1.1-2-2.5-2.3-4.1c-0.3-1.9,0-3.7,1.2-5.3c0.9-1.2,2-2.2,3.5-2.6c0.6-0.2,1.2-0.4,1.8-0.4
		c28.9,0,57.9,0,86.8,0c1.6,0,3.1,0.7,4.3,1.8c1.1,1,1.8,2.2,2.2,3.6c0,0.2,0.1,0.3,0.2,0.5L100,65.4L100,65.4z"/>
</svg>
